<svg xmlns="http://www.w3.org/2000/svg" xmlns:xlink="http://www.w3.org/1999/xlink" width="500" zoomAndPan="magnify" viewBox="0 0 375 374.999991" height="500" preserveAspectRatio="xMidYMid meet" version="1.0"><defs><g/><clipPath id="4039c35072"><path d="M 224.050781 175.523438 L 248 175.523438 L 248 199.523438 L 224.050781 199.523438 Z M 224.050781 175.523438 " clip-rule="nonzero"/></clipPath><clipPath id="f67e1e7002"><path d="M 256.167969 165.359375 L 307.871094 165.359375 L 307.871094 202.109375 L 256.167969 202.109375 Z M 256.167969 165.359375 " clip-rule="nonzero"/></clipPath></defs><g clip-path="url(#4039c35072)"><path fill="#1b1919" d="M 225.375 186.75 C 225.523438 184.59375 226.3125 182.566406 227.664062 180.863281 C 228.539062 181.242188 229.46875 181.5625 230.441406 181.816406 C 229.992188 183.371094 229.738281 185.027344 229.683594 186.75 Z M 235.273438 193.78125 L 235.273438 198.054688 C 234.050781 197.644531 232.910156 196.234375 232.09375 194.113281 C 233.089844 193.929688 234.15625 193.820312 235.273438 193.78125 Z M 232.621094 197.613281 C 231.109375 197.101562 229.726562 196.257812 228.574219 195.132812 C 229.273438 194.859375 230.03125 194.613281 230.835938 194.410156 C 231.316406 195.691406 231.925781 196.78125 232.621094 197.613281 Z M 230.96875 188.238281 L 235.273438 188.238281 L 235.273438 192.484375 C 234.042969 192.523438 232.839844 192.660156 231.683594 192.886719 C 231.269531 191.449219 231.023438 189.851562 230.96875 188.238281 Z M 235.273438 182.503906 L 235.273438 186.75 L 230.96875 186.75 C 231.027344 185.136719 231.269531 183.542969 231.683594 182.105469 C 232.84375 182.332031 234.050781 182.46875 235.273438 182.503906 Z M 228.574219 179.855469 C 229.730469 178.734375 231.109375 177.886719 232.621094 177.378906 C 231.925781 178.207031 231.316406 179.296875 230.835938 180.582031 C 230.03125 180.375 229.273438 180.132812 228.574219 179.855469 Z M 232.09375 180.875 C 232.910156 178.753906 234.050781 177.347656 235.273438 176.9375 L 235.273438 181.207031 C 234.152344 181.171875 233.085938 181.058594 232.09375 180.875 Z M 230.441406 193.175781 C 229.46875 193.429688 228.539062 193.746094 227.664062 194.125 C 226.3125 192.425781 225.523438 190.398438 225.375 188.238281 L 229.683594 188.238281 C 229.738281 189.960938 229.992188 191.617188 230.441406 193.175781 Z M 246.664062 188.234375 C 246.515625 190.398438 245.726562 192.425781 244.375 194.125 C 243.5 193.746094 242.566406 193.429688 241.597656 193.175781 C 242.046875 191.621094 242.300781 189.964844 242.355469 188.234375 Z M 236.765625 181.207031 L 236.765625 176.9375 C 237.988281 177.347656 239.128906 178.753906 239.945312 180.875 C 238.953125 181.058594 237.886719 181.171875 236.765625 181.207031 Z M 241.203125 180.582031 C 240.722656 179.296875 240.113281 178.207031 239.417969 177.378906 C 240.929688 177.886719 242.3125 178.730469 243.464844 179.855469 C 242.765625 180.132812 242.007812 180.375 241.203125 180.582031 Z M 241.070312 186.75 L 236.765625 186.75 L 236.765625 182.503906 C 237.992188 182.464844 239.199219 182.332031 240.351562 182.105469 C 240.765625 183.539062 241.015625 185.136719 241.070312 186.75 Z M 242.355469 186.75 C 242.300781 185.027344 242.046875 183.371094 241.597656 181.816406 C 242.570312 181.5625 243.5 181.242188 244.375 180.867188 C 245.726562 182.566406 246.515625 184.59375 246.664062 186.75 Z M 236.765625 192.484375 L 236.765625 188.234375 L 241.070312 188.234375 C 241.015625 189.851562 240.765625 191.449219 240.355469 192.886719 C 239.199219 192.660156 237.992188 192.523438 236.765625 192.484375 Z M 243.464844 195.132812 C 242.3125 196.257812 240.929688 197.101562 239.417969 197.613281 C 240.113281 196.78125 240.722656 195.691406 241.203125 194.410156 C 242.011719 194.617188 242.769531 194.859375 243.464844 195.132812 Z M 239.941406 194.113281 C 239.128906 196.234375 237.988281 197.640625 236.765625 198.054688 L 236.765625 193.78125 C 237.878906 193.820312 238.945312 193.929688 239.941406 194.113281 Z M 236.019531 175.523438 C 229.417969 175.523438 224.050781 180.894531 224.050781 187.496094 C 224.050781 194.09375 229.417969 199.464844 236.019531 199.464844 C 242.621094 199.464844 247.992188 194.09375 247.992188 187.496094 C 247.992188 180.894531 242.621094 175.523438 236.019531 175.523438 Z M 236.019531 175.523438 " fill-opacity="1" fill-rule="evenodd"/></g><g fill="#1b1919" fill-opacity="1"><g transform="translate(66.369435, 268.344907)"><g><path d="M 20.953125 0 L 20.953125 -161.21875 L 89.765625 -161.21875 C 99.679688 -161.21875 108.078125 -159.65625 114.953125 -156.53125 C 121.828125 -153.40625 127.023438 -148.957031 130.546875 -143.1875 C 134.078125 -137.414062 135.84375 -130.597656 135.84375 -122.734375 C 135.84375 -115.597656 134.113281 -109.3125 130.65625 -103.875 C 127.207031 -98.4375 122.25 -94.0625 115.78125 -90.75 L 115.78125 -88.4375 C 125.925781 -85.789062 133.753906 -80.972656 139.265625 -73.984375 C 144.773438 -67.003906 147.53125 -58.441406 147.53125 -48.296875 C 147.53125 -32.859375 142.878906 -20.945312 133.578125 -12.5625 C 124.285156 -4.1875 110.488281 0 92.1875 0 Z M 83.140625 -96.921875 C 97.992188 -96.921875 105.421875 -103.613281 105.421875 -117 C 105.421875 -123.832031 103.582031 -128.921875 99.90625 -132.265625 C 96.226562 -135.609375 90.640625 -137.28125 83.140625 -137.28125 L 52.8125 -137.28125 L 52.8125 -96.921875 Z M 88.984375 -25.25 C 106.554688 -25.25 115.34375 -33.222656 115.34375 -49.171875 C 115.34375 -65.203125 106.554688 -73.21875 88.984375 -73.21875 L 52.8125 -73.21875 L 52.8125 -25.25 Z M 88.984375 -25.25 "/></g></g></g><g clip-path="url(#f67e1e7002)"><path fill="#1b1919" d="M 290.757812 199.058594 L 287.894531 199.058594 L 287.894531 200.332031 L 290.757812 200.332031 Z M 286.148438 199.058594 L 283.28125 199.058594 L 283.28125 200.332031 L 286.148438 200.332031 Z M 281.683594 199.292969 L 278.820312 199.292969 L 278.820312 200.105469 L 281.683594 200.105469 Z M 261.867188 199.144531 C 261.5625 199.144531 261.316406 199.390625 261.316406 199.695312 C 261.316406 200 261.5625 200.246094 261.867188 200.246094 C 262.171875 200.246094 262.417969 200 262.417969 199.695312 C 262.417969 199.390625 262.171875 199.144531 261.867188 199.144531 Z M 294.621094 199.167969 L 294.546875 199.359375 L 294.535156 199.355469 C 293.753906 200.996094 292.078125 202.132812 290.136719 202.132812 L 261.078125 202.132812 C 258.386719 202.132812 256.207031 199.949219 256.207031 197.257812 L 293.9375 197.257812 L 306.445312 165.871094 C 306.582031 165.527344 306.972656 165.359375 307.320312 165.496094 C 307.664062 165.632812 307.832031 166.023438 307.695312 166.371094 L 294.6875 198.996094 C 294.667969 199.054688 294.644531 199.109375 294.621094 199.167969 " fill-opacity="1" fill-rule="nonzero"/></g><path fill="#1b1919" d="M 287.894531 199.058594 L 290.757812 199.058594 L 290.757812 200.332031 L 287.894531 200.332031 L 287.894531 199.058594 " fill-opacity="1" fill-rule="nonzero"/><path fill="#1b1919" d="M 283.285156 199.058594 L 286.148438 199.058594 L 286.148438 200.332031 L 283.285156 200.332031 L 283.285156 199.058594 " fill-opacity="1" fill-rule="nonzero"/><path fill="#1b1919" d="M 278.820312 199.292969 L 281.683594 199.292969 L 281.683594 200.105469 L 278.820312 200.105469 L 278.820312 199.292969 " fill-opacity="1" fill-rule="nonzero"/><path fill="#1b1919" d="M 261.867188 199.371094 C 261.691406 199.371094 261.542969 199.515625 261.542969 199.695312 C 261.542969 199.875 261.691406 200.019531 261.867188 200.019531 C 262.046875 200.019531 262.191406 199.875 262.191406 199.695312 C 262.191406 199.515625 262.046875 199.371094 261.867188 199.371094 Z M 261.867188 200.246094 C 261.5625 200.246094 261.316406 200 261.316406 199.695312 C 261.316406 199.390625 261.5625 199.144531 261.867188 199.144531 C 262.171875 199.144531 262.417969 199.390625 262.417969 199.695312 C 262.417969 200 262.171875 200.246094 261.867188 200.246094 " fill-opacity="1" fill-rule="nonzero"/><path fill="#1b1919" d="M 261.867188 200.019531 C 261.691406 200.019531 261.542969 199.875 261.542969 199.695312 C 261.542969 199.515625 261.691406 199.371094 261.867188 199.371094 C 262.046875 199.371094 262.191406 199.515625 262.191406 199.695312 C 262.191406 199.875 262.046875 200.019531 261.867188 200.019531 " fill-opacity="1" fill-rule="nonzero"/><g fill="#1b1919" fill-opacity="1"><g transform="translate(222.5491, 264.549546)"><g><path d="M 20.15625 0 L 8 0 L 8 -61.53125 L 20.15625 -61.53125 Z M 20.15625 0 "/></g></g></g><g fill="#1b1919" fill-opacity="1"><g transform="translate(250.749526, 264.549546)"><g><path d="M 49.328125 -61.53125 L 49.328125 -51.3125 L 31.5625 -51.3125 L 31.5625 0 L 19.453125 0 L 19.453125 -51.3125 L 1.6875 -51.3125 L 1.6875 -61.53125 Z M 49.328125 -61.53125 "/></g></g></g><g fill="#1b1919" fill-opacity="1"><g transform="translate(107.873222, 296.92668)"><g><path d="M 7.5 0 L 4.03125 0 L 0.4375 -15.703125 L 3.53125 -15.703125 L 5.890625 -4.65625 L 6.171875 -4.65625 L 8.984375 -15.703125 L 11.640625 -15.703125 L 14.5 -4.65625 L 14.765625 -4.65625 L 17.15625 -15.703125 L 20.140625 -15.703125 L 16.546875 0 L 13.078125 0 L 10.328125 -10.125 L 10.09375 -10.125 Z M 7.5 0 "/></g></g></g><g fill="#1b1919" fill-opacity="1"><g transform="translate(128.430117, 296.92668)"><g><path d="M 5.140625 -6.890625 L 5.140625 -2.59375 L 12.640625 -2.59375 L 12.640625 0 L 2.046875 0 L 2.046875 -15.703125 L 12.46875 -15.703125 L 12.46875 -13.109375 L 5.140625 -13.109375 L 5.140625 -9.4375 L 11.546875 -9.4375 L 11.546875 -6.890625 Z M 5.140625 -6.890625 "/></g></g></g><g fill="#1b1919" fill-opacity="1"><g transform="translate(141.930654, 296.92668)"><g><path d="M 2.046875 0 L 2.046875 -15.703125 L 8.75 -15.703125 C 9.707031 -15.703125 10.519531 -15.550781 11.1875 -15.25 C 11.863281 -14.945312 12.375 -14.515625 12.71875 -13.953125 C 13.0625 -13.390625 13.234375 -12.722656 13.234375 -11.953125 C 13.234375 -11.265625 13.0625 -10.65625 12.71875 -10.125 C 12.382812 -9.59375 11.90625 -9.164062 11.28125 -8.84375 L 11.28125 -8.609375 C 12.269531 -8.359375 13.03125 -7.890625 13.5625 -7.203125 C 14.101562 -6.523438 14.375 -5.691406 14.375 -4.703125 C 14.375 -3.203125 13.921875 -2.039062 13.015625 -1.21875 C 12.109375 -0.40625 10.765625 0 8.984375 0 Z M 8.09375 -9.4375 C 9.539062 -9.4375 10.265625 -10.085938 10.265625 -11.390625 C 10.265625 -12.054688 10.085938 -12.550781 9.734375 -12.875 C 9.378906 -13.207031 8.832031 -13.375 8.09375 -13.375 L 5.140625 -13.375 L 5.140625 -9.4375 Z M 8.671875 -2.453125 C 10.378906 -2.453125 11.234375 -3.234375 11.234375 -4.796875 C 11.234375 -6.359375 10.378906 -7.140625 8.671875 -7.140625 L 5.140625 -7.140625 L 5.140625 -2.453125 Z M 8.671875 -2.453125 "/></g></g></g><g fill="#1b1919" fill-opacity="1"><g transform="translate(157.289253, 296.92668)"><g/></g></g><g fill="#1b1919" fill-opacity="1"><g transform="translate(162.476814, 296.92668)"><g><path d="M 6.96875 0.21875 C 5.875 0.21875 4.898438 0.0859375 4.046875 -0.171875 C 3.203125 -0.441406 2.492188 -0.796875 1.921875 -1.234375 C 1.359375 -1.671875 0.929688 -2.148438 0.640625 -2.671875 L 2.34375 -4.765625 L 2.609375 -4.765625 C 3.078125 -4.054688 3.675781 -3.492188 4.40625 -3.078125 C 5.132812 -2.660156 5.988281 -2.453125 6.96875 -2.453125 C 7.789062 -2.453125 8.410156 -2.628906 8.828125 -2.984375 C 9.253906 -3.335938 9.46875 -3.820312 9.46875 -4.4375 C 9.46875 -4.8125 9.398438 -5.125 9.265625 -5.375 C 9.128906 -5.625 8.90625 -5.835938 8.59375 -6.015625 C 8.28125 -6.191406 7.851562 -6.347656 7.3125 -6.484375 L 5.296875 -6.9375 C 3.890625 -7.257812 2.835938 -7.796875 2.140625 -8.546875 C 1.453125 -9.296875 1.109375 -10.269531 1.109375 -11.46875 C 1.109375 -12.351562 1.328125 -13.128906 1.765625 -13.796875 C 2.210938 -14.472656 2.859375 -15 3.703125 -15.375 C 4.554688 -15.75 5.570312 -15.9375 6.75 -15.9375 C 7.96875 -15.9375 9.003906 -15.773438 9.859375 -15.453125 C 10.722656 -15.128906 11.453125 -14.640625 12.046875 -13.984375 L 10.515625 -11.875 L 10.25 -11.875 C 9.800781 -12.34375 9.289062 -12.691406 8.71875 -12.921875 C 8.144531 -13.160156 7.488281 -13.28125 6.75 -13.28125 C 5.90625 -13.28125 5.257812 -13.128906 4.8125 -12.828125 C 4.363281 -12.523438 4.140625 -12.109375 4.140625 -11.578125 C 4.140625 -11.085938 4.296875 -10.691406 4.609375 -10.390625 C 4.921875 -10.097656 5.460938 -9.875 6.234375 -9.71875 L 8.296875 -9.28125 C 9.816406 -8.957031 10.921875 -8.410156 11.609375 -7.640625 C 12.296875 -6.867188 12.640625 -5.863281 12.640625 -4.625 C 12.640625 -3.644531 12.425781 -2.789062 12 -2.0625 C 11.582031 -1.34375 10.945312 -0.78125 10.09375 -0.375 C 9.238281 0.0195312 8.195312 0.21875 6.96875 0.21875 Z M 6.96875 0.21875 "/></g></g></g><g fill="#1b1919" fill-opacity="1"><g transform="translate(175.966605, 296.92668)"><g><path d="M 8.5625 0.21875 C 7.125 0.21875 5.851562 -0.0703125 4.75 -0.65625 C 3.65625 -1.238281 2.796875 -2.132812 2.171875 -3.34375 C 1.546875 -4.550781 1.234375 -6.054688 1.234375 -7.859375 C 1.234375 -9.648438 1.546875 -11.148438 2.171875 -12.359375 C 2.796875 -13.566406 3.65625 -14.460938 4.75 -15.046875 C 5.851562 -15.640625 7.125 -15.9375 8.5625 -15.9375 C 10 -15.9375 11.265625 -15.644531 12.359375 -15.0625 C 13.460938 -14.476562 14.320312 -13.578125 14.9375 -12.359375 C 15.550781 -11.148438 15.859375 -9.648438 15.859375 -7.859375 C 15.859375 -6.054688 15.550781 -4.550781 14.9375 -3.34375 C 14.320312 -2.132812 13.460938 -1.238281 12.359375 -0.65625 C 11.265625 -0.0703125 10 0.21875 8.5625 0.21875 Z M 8.5625 -2.46875 C 9.894531 -2.46875 10.910156 -2.894531 11.609375 -3.75 C 12.316406 -4.601562 12.671875 -5.972656 12.671875 -7.859375 C 12.671875 -9.734375 12.316406 -11.097656 11.609375 -11.953125 C 10.910156 -12.816406 9.894531 -13.25 8.5625 -13.25 C 7.21875 -13.25 6.191406 -12.816406 5.484375 -11.953125 C 4.785156 -11.097656 4.4375 -9.734375 4.4375 -7.859375 C 4.4375 -5.972656 4.785156 -4.601562 5.484375 -3.75 C 6.191406 -2.894531 7.21875 -2.46875 8.5625 -2.46875 Z M 8.5625 -2.46875 "/></g></g></g><g fill="#1b1919" fill-opacity="1"><g transform="translate(193.075876, 296.92668)"><g><path d="M 5.140625 -15.703125 L 5.140625 -2.59375 L 12.203125 -2.59375 L 12.203125 0 L 2.046875 0 L 2.046875 -15.703125 Z M 5.140625 -15.703125 "/></g></g></g><g fill="#1b1919" fill-opacity="1"><g transform="translate(205.792367, 296.92668)"><g><path d="M 8.328125 0.21875 C 6.160156 0.21875 4.550781 -0.289062 3.5 -1.3125 C 2.457031 -2.34375 1.9375 -3.867188 1.9375 -5.890625 L 1.9375 -15.703125 L 4.984375 -15.703125 L 4.984375 -5.90625 C 4.984375 -4.757812 5.257812 -3.898438 5.8125 -3.328125 C 6.363281 -2.753906 7.203125 -2.46875 8.328125 -2.46875 C 10.554688 -2.46875 11.671875 -3.613281 11.671875 -5.90625 L 11.671875 -15.703125 L 14.703125 -15.703125 L 14.703125 -5.890625 C 14.703125 -3.867188 14.175781 -2.34375 13.125 -1.3125 C 12.082031 -0.289062 10.484375 0.21875 8.328125 0.21875 Z M 8.328125 0.21875 "/></g></g></g><g fill="#1b1919" fill-opacity="1"><g transform="translate(222.4398, 296.92668)"><g><path d="M 12.59375 -15.703125 L 12.59375 -13.09375 L 8.0625 -13.09375 L 8.0625 0 L 4.96875 0 L 4.96875 -13.09375 L 0.4375 -13.09375 L 0.4375 -15.703125 Z M 12.59375 -15.703125 "/></g></g></g><g fill="#1b1919" fill-opacity="1"><g transform="translate(235.457019, 296.92668)"><g><path d="M 5.140625 0 L 2.046875 0 L 2.046875 -15.703125 L 5.140625 -15.703125 Z M 5.140625 0 "/></g></g></g><g fill="#1b1919" fill-opacity="1"><g transform="translate(242.653006, 296.92668)"><g><path d="M 8.5625 0.21875 C 7.125 0.21875 5.851562 -0.0703125 4.75 -0.65625 C 3.65625 -1.238281 2.796875 -2.132812 2.171875 -3.34375 C 1.546875 -4.550781 1.234375 -6.054688 1.234375 -7.859375 C 1.234375 -9.648438 1.546875 -11.148438 2.171875 -12.359375 C 2.796875 -13.566406 3.65625 -14.460938 4.75 -15.046875 C 5.851562 -15.640625 7.125 -15.9375 8.5625 -15.9375 C 10 -15.9375 11.265625 -15.644531 12.359375 -15.0625 C 13.460938 -14.476562 14.320312 -13.578125 14.9375 -12.359375 C 15.550781 -11.148438 15.859375 -9.648438 15.859375 -7.859375 C 15.859375 -6.054688 15.550781 -4.550781 14.9375 -3.34375 C 14.320312 -2.132812 13.460938 -1.238281 12.359375 -0.65625 C 11.265625 -0.0703125 10 0.21875 8.5625 0.21875 Z M 8.5625 -2.46875 C 9.894531 -2.46875 10.910156 -2.894531 11.609375 -3.75 C 12.316406 -4.601562 12.671875 -5.972656 12.671875 -7.859375 C 12.671875 -9.734375 12.316406 -11.097656 11.609375 -11.953125 C 10.910156 -12.816406 9.894531 -13.25 8.5625 -13.25 C 7.21875 -13.25 6.191406 -12.816406 5.484375 -11.953125 C 4.785156 -11.097656 4.4375 -9.734375 4.4375 -7.859375 C 4.4375 -5.972656 4.785156 -4.601562 5.484375 -3.75 C 6.191406 -2.894531 7.21875 -2.46875 8.5625 -2.46875 Z M 8.5625 -2.46875 "/></g></g></g><g fill="#1b1919" fill-opacity="1"><g transform="translate(259.762277, 296.92668)"><g><path d="M 5.046875 0 L 2.046875 0 L 2.046875 -15.703125 L 5.59375 -15.703125 L 11.90625 -5.59375 L 12.1875 -5.625 L 12.1875 -15.703125 L 15.171875 -15.703125 L 15.171875 0 L 11.984375 0 L 5.3125 -10.8125 L 5.046875 -10.765625 Z M 5.046875 0 "/></g></g></g><g fill="#1b1919" fill-opacity="1"><g transform="translate(276.978951, 296.92668)"><g><path d="M 6.96875 0.21875 C 5.875 0.21875 4.898438 0.0859375 4.046875 -0.171875 C 3.203125 -0.441406 2.492188 -0.796875 1.921875 -1.234375 C 1.359375 -1.671875 0.929688 -2.148438 0.640625 -2.671875 L 2.34375 -4.765625 L 2.609375 -4.765625 C 3.078125 -4.054688 3.675781 -3.492188 4.40625 -3.078125 C 5.132812 -2.660156 5.988281 -2.453125 6.96875 -2.453125 C 7.789062 -2.453125 8.410156 -2.628906 8.828125 -2.984375 C 9.253906 -3.335938 9.46875 -3.820312 9.46875 -4.4375 C 9.46875 -4.8125 9.398438 -5.125 9.265625 -5.375 C 9.128906 -5.625 8.90625 -5.835938 8.59375 -6.015625 C 8.28125 -6.191406 7.851562 -6.347656 7.3125 -6.484375 L 5.296875 -6.9375 C 3.890625 -7.257812 2.835938 -7.796875 2.140625 -8.546875 C 1.453125 -9.296875 1.109375 -10.269531 1.109375 -11.46875 C 1.109375 -12.351562 1.328125 -13.128906 1.765625 -13.796875 C 2.210938 -14.472656 2.859375 -15 3.703125 -15.375 C 4.554688 -15.75 5.570312 -15.9375 6.75 -15.9375 C 7.96875 -15.9375 9.003906 -15.773438 9.859375 -15.453125 C 10.722656 -15.128906 11.453125 -14.640625 12.046875 -13.984375 L 10.515625 -11.875 L 10.25 -11.875 C 9.800781 -12.34375 9.289062 -12.691406 8.71875 -12.921875 C 8.144531 -13.160156 7.488281 -13.28125 6.75 -13.28125 C 5.90625 -13.28125 5.257812 -13.128906 4.8125 -12.828125 C 4.363281 -12.523438 4.140625 -12.109375 4.140625 -11.578125 C 4.140625 -11.085938 4.296875 -10.691406 4.609375 -10.390625 C 4.921875 -10.097656 5.460938 -9.875 6.234375 -9.71875 L 8.296875 -9.28125 C 9.816406 -8.957031 10.921875 -8.410156 11.609375 -7.640625 C 12.296875 -6.867188 12.640625 -5.863281 12.640625 -4.625 C 12.640625 -3.644531 12.425781 -2.789062 12 -2.0625 C 11.582031 -1.34375 10.945312 -0.78125 10.09375 -0.375 C 9.238281 0.0195312 8.195312 0.21875 6.96875 0.21875 Z M 6.96875 0.21875 "/></g></g></g></svg>